PathFileType	4	(X/Y/Z)	/Users/visionmauri/Downloads/Videos/OAW05-top_Sports2D/OAW05-top_Sports2D_px_person00.trc
DataRate	CameraRate	NumFrames	NumMarkers	Units	OrigDataRate	OrigDataStartFrame	OrigNumFrames
28.0	28.0	12	22	m	28.0	1091	2182
Frame#	Time	Hip			RHip			RKnee			RAnkle			RBigToe			RSmallToe			RHeel			LHip			LKnee			LAnkle			LBigToe			LSmallToe			LHeel			Neck			Head			Nose			RShoulder			RElbow			RWrist			LShoulder			LElbow			LWrist			
		X1	Y1	Z1	X2	Y2	Z2	X3	Y3	Z3	X4	Y4	Z4	X5	Y5	Z5	X6	Y6	Z6	X7	Y7	Z7	X8	Y8	Z8	X9	Y9	Z9	X10	Y10	Z10	X11	Y11	Z11	X12	Y12	Z12	X13	Y13	Z13	X14	Y14	Z14	X15	Y15	Z15	X16	Y16	Z16	X17	Y17	Z17	X18	Y18	Z18	X19	Y19	Z19	X20	Y20	Z20	X21	Y21	Z21	X22	Y22	Z22
1091	38.982151044737016	577.8312130643683	794.9878222682325	0.0	620.5680316549689	799.5402122396738	0.0	602.7197742151087	963.887598378367	0.0	580.0571248351115	1135.671836162286	0.0	564.4222764270702	1164.5065810193778	0.0	596.0041392154673	1174.4729194418055	0.0	576.7655439521226	1174.9176792201783	0.0	535.557842125419	793.4576047361893	0.0	518.3906361357871	952.3119279859886	0.0	516.2544758371411	1094.4772830098905	0.0	525.7844964246821	1125.9804394686619	0.0	501.5190435612071	1131.794349925483	0.0	519.8940847174292	1127.6240704873608	0.0	606.3581024237343	551.3351735152169	0.0	634.7911947869875	453.4618310512524	0.0	632.0761969819922	526.8478293907482	0.0	684.1421973598702	587.8894504825283	0.0	690.1157869121556	716.268588545201	0.0	683.5363929072082	814.7972876467031	0.0	526.2589720905509	573.901465607022	0.0	494.1811838553547	700.7680025247998	0.0	468.6741605304316	807.6254941871413	0.0
1092	39.01788170563962	577.0967568192565	792.4913898979842	0.0	619.715558568835	797.6398968361758	0.0	602.9013448902003	963.7477270615885	0.0	579.798769144319	1135.992581286698	0.0	564.670085781083	1163.1906837993204	0.0	594.2564973640112	1174.7933399326546	0.0	576.6258006575387	1172.878495346899	0.0	534.6658263606772	792.0142462559016	0.0	518.4369347353827	947.4605610676341	0.0	516.1774633023209	1085.329896228444	0.0	525.0010616947369	1108.3609148850483	0.0	501.4270203716161	1114.0214375444705	0.0	519.4881346266686	1114.8204202167465	0.0	605.9632503291124	551.8408882918999	0.0	633.9054074625996	454.6382690504492	0.0	631.9011784054586	528.6503372930376	0.0	683.692549342292	587.2933445396209	0.0	690.0571912361509	714.173404970511	0.0	679.6876234234614	807.1114397618009	0.0	526.397650034012	573.7661646208796	0.0	494.48605671272975	699.4804909468404	0.0	469.0572480758972	806.1282952277473	0.0
1093	39.05361236654222	576.4151946105129	791.5507173316013	0.0	619.6911120827252	797.4655088407166	0.0	602.4972210750637	964.2843442658382	0.0	579.9279963409804	1137.159909171668	0.0	564.9385886920153	1163.072427914467	0.0	593.6046556538541	1175.4876423565222	0.0	576.6627296011671	1170.654651981168	0.0	533.6659671644711	791.5596799477793	0.0	519.1759349734108	940.8213587491175	0.0	517.8555659606361	1069.1034209136226	0.0	524.7620720507256	1082.8833928776805	0.0	501.8607364107713	1088.4639525184962	0.0	520.5193018712907	1094.9304315116954	0.0	605.7568039813589	551.9274911307388	0.0	633.1195692978758	457.6219832821266	0.0	631.8288435367997	529.5776798697169	0.0	682.5438750159149	587.4910307078594	0.0	689.1044167991919	713.1725134815924	0.0	675.0756943401001	801.022834295668	0.0	526.3374622544433	573.1482066130569	0.0	494.5030228470779	699.0656569619665	0.0	469.27159555740695	804.8098344721311	0.0
1094	39.08934302744482	576.1814029284363	789.8159111445893	0.0	620.445823089988	795.909650964667	0.0	602.5155325219262	962.6613128567848	0.0	580.0023561876186	1138.1641032686318	0.0	565.0278438663275	1164.1454684379637	0.0	593.8062517481995	1176.4141569336468	0.0	576.5511397365847	1169.4598570672592	0.0	533.3069389330515	789.1729685524566	0.0	521.5129113324122	929.5160320479221	0.0	520.9403266155133	1046.9601653395587	0.0	523.9734123109276	1050.1679039626483	0.0	502.4386161930525	1054.5117332002692	0.0	522.665710070722	1072.5057357471983	0.0	604.7032315212931	551.684037060215	0.0	633.0653703651124	460.37767452947395	0.0	631.364471142519	528.4649140703501	0.0	680.3250315070986	587.1080009910163	0.0	686.922023827717	711.6717251390637	0.0	670.2077568782935	795.0675091719296	0.0	525.803367972789	571.9341670029977	0.0	494.1325466732262	698.5249420815078	0.0	469.49824716420443	803.2311237010127	0.0
1095	39.12507368834742	575.532985375002	786.234094249329	0.0	620.3726931085738	792.0601666072447	0.0	602.6530789648513	958.6650783374087	0.0	579.522533026085	1137.3331591903068	0.0	564.7079913375328	1165.7332455756086	0.0	594.2817686008807	1177.3542147463295	0.0	576.187380972027	1168.5662288308856	0.0	532.8803187455958	784.5450386615212	0.0	525.5038678285672	915.6991170595694	0.0	524.2101072998099	1027.614679456424	0.0	524.5540292615328	1023.2043405391281	0.0	503.7466285577455	1024.4629439843368	0.0	525.3262593107575	1055.6669889750938	0.0	601.8032710532287	551.4934115117417	0.0	631.439847186164	461.10299138777896	0.0	628.5290054437307	525.2545533589185	0.0	676.7090826889037	586.1599073679004	0.0	683.7642125969151	709.011106000891	0.0	665.7477342736137	789.6162833532414	0.0	524.2344803318332	571.0125145477645	0.0	493.2984573782777	696.6525369120069	0.0	468.90453745902175	800.6437109953076	0.0
1096	39.160804349250014	573.8659822529892	782.6013532753151	0.0	618.5191172155891	788.0672689514023	0.0	602.0130509438037	953.2771629603758	0.0	579.1332993651357	1133.9413065807503	0.0	564.439215085187	1165.660894362048	0.0	595.4222210045631	1176.3582936918226	0.0	576.2160554760898	1165.8619501192695	0.0	532.2147613923161	780.9180579263582	0.0	529.5585706030537	906.3082477829327	0.0	528.7523309164529	1019.5056482627192	0.0	529.6298676446733	1011.4212385933896	0.0	508.09120905739206	1011.7290983384505	0.0	529.7786961115177	1048.9869542984604	0.0	597.4940289792269	551.1795230052214	0.0	625.1330009248492	460.56464287668655	0.0	621.1465380048107	521.8030771903225	0.0	671.9446465338245	585.0200005418446	0.0	680.1739695685563	705.2977039293069	0.0	662.4153333157809	785.7526325988813	0.0	521.6459139614252	570.7463878578736	0.0	492.02752719882466	694.3189227390118	0.0	466.93179785345046	797.5147559305667	0.0
1097	39.196535010152616	571.7440103676258	779.7971959971098	0.0	615.3724090542916	784.6171202310173	0.0	600.5490600493742	947.0108657650584	0.0	580.3213096245231	1128.6743058773784	0.0	564.6520850499686	1163.2539226038416	0.0	597.3928347221427	1172.6856187893754	0.0	577.3305614413214	1160.5409589657743	0.0	532.0691195351819	779.5923157064068	0.0	532.3332083690076	903.9993891215148	0.0	535.002434484255	1020.3091941354378	0.0	538.2878089602195	1010.8880914432776	0.0	515.187797142232	1015.2885784531558	0.0	536.067308875629	1049.2628222557933	0.0	592.4940597251091	550.5587814160411	0.0	613.806298291722	459.8555634137726	0.0	609.778508865192	519.3884086190317	0.0	666.2553564393567	582.9822336105015	0.0	676.2436091638268	701.0921927118924	0.0	660.5099442743244	783.3977780821946	0.0	518.0773965287722	570.8885680351398	0.0	490.0268852796535	693.1899811083543	0.0	464.20575313758656	794.8514400790795	0.0
1098	39.23226567105522	569.4633601074694	775.7592710930652	0.0	611.5248971419002	779.8892323640634	0.0	598.6842591574174	939.6618082330965	0.0	583.0783482987855	1121.30866939993	0.0	566.2602454950703	1159.4361174929202	0.0	599.9353645884478	1167.088280270046	0.0	579.5717706639177	1152.988277407372	0.0	531.7756362905368	777.4816041894535	0.0	533.6225552050017	904.160069232616	0.0	539.6931535219309	1021.9532618363387	0.0	544.9766891102755	1014.0260645229416	0.0	520.5687024563588	1023.726601971487	0.0	540.6765925290886	1050.4248753634276	0.0	586.682043535642	549.8552539591659	0.0	601.0660816807481	458.46086057548746	0.0	598.2644417565486	516.5467178648183	0.0	659.7223453731632	579.5595208203728	0.0	671.6020039813568	696.823913854947	0.0	659.7227295263202	781.3345044023479	0.0	513.3943739518544	570.8750004885057	0.0	486.8596331188249	692.3150401298134	0.0	461.4422637405987	791.776374719682	0.0
1099	39.26799633195782	566.6222073040426	769.4446355356417	0.0	606.9768788887305	773.2636128682756	0.0	595.9237246008732	930.7867783973404	0.0	585.427992327747	1109.3868824530246	0.0	570.0800165212087	1153.0294044365296	0.0	602.9605276733968	1158.4688649821398	0.0	581.911827768302	1142.041656939854	0.0	529.930112117229	772.3099597529979	0.0	533.0800770806086	903.0321223038837	0.0	540.1841931462725	1021.1112391421692	0.0	546.828290551424	1018.2902692971647	0.0	521.8790706646507	1030.3940807592014	0.0	541.196713351137	1049.738400873938	0.0	580.405783148361	548.8679110928643	0.0	591.1110801941556	455.8872525337326	0.0	590.1243710919773	512.2444943395557	0.0	653.0977107135747	575.7332942048184	0.0	666.4347418514744	692.5348859352374	0.0	659.2814780030368	778.8926029646127	0.0	508.38667830584603	569.7323523644901	0.0	482.92066880303474	689.0555034767322	0.0	458.6241354586382	786.9325229107162	0.0
1100	39.30372699286042	563.3542305369291	762.8705018566183	0.0	602.0946836252051	766.0412584442638	0.0	591.6138534224632	919.6386204402098	0.0	585.6450060212501	1089.421450021185	0.0	574.5448518896451	1139.3800616917156	0.0	605.4452622451635	1142.5419232557083	0.0	582.3186603187374	1123.716867469747	0.0	527.0594898863998	765.4967171101443	0.0	530.5880977683981	900.863257302546	0.0	537.6523719773934	1019.5858675250176	0.0	546.2929162918018	1023.5612701849199	0.0	520.8946755482982	1035.5711360006826	0.0	539.2373954054058	1047.9350116215	0.0	575.2402544190624	546.557517379313	0.0	585.3658702129131	453.4288645094637	0.0	585.648751200262	509.25746444477556	0.0	647.3873742424472	572.2714030314122	0.0	661.7173444558633	687.7004539436069	0.0	658.4800336779617	776.2505813254469	0.0	504.7504009420755	566.8094558729154	0.0	479.5403621820091	683.2096908258326	0.0	455.7817450373217	780.6774597212377	0.0
1101	39.33945765376302	560.4313657791063	757.2124331241967	0.0	598.0076100541582	758.9272562871705	0.0	586.6557251981429	906.1505228714228	0.0	583.7222125507598	1060.5279112758894	0.0	576.1985365997223	1115.378864848792	0.0	605.1209573305108	1116.4873120503762	0.0	579.5372012225589	1095.4748271982944	0.0	524.5854175554878	758.5498061566657	0.0	527.3401476060478	897.6861010179397	0.0	534.4420612423949	1019.0300216678528	0.0	545.9953307886179	1028.6752618532244	0.0	519.2914841627735	1039.3770986440763	0.0	537.1234965884194	1046.650029699322	0.0	572.2682636728042	542.414135658594	0.0	582.4968273802598	452.0455367090173	0.0	583.0290009178781	509.03810685005755	0.0	642.8743071900875	568.3210587933638	0.0	658.0353699301353	681.6488881179032	0.0	657.4575654748462	773.2875594608913	0.0	503.1354642987058	562.2663503182638	0.0	477.55970349812776	676.9946061273447	0.0	453.8211688923553	774.1279411417877	0.0
1102	39.37518831466562	558.372617038726	750.8647291297866	0.0	595.1059766647644	751.4399017827967	0.0	582.6271687605881	892.1932212233603	0.0	580.8018682876915	1029.6119425677914	0.0	573.7301626280522	1086.0101750975412	0.0	601.7073678043087	1085.8227474001812	0.0	574.7899892368912	1063.7669707890052	0.0	522.6776396409516	750.6985739643304	0.0	524.757744415963	891.9866339931991	0.0	531.8855079837157	1018.3411440456758	0.0	546.1440241519356	1032.0681546340836	0.0	517.8336448738431	1040.9306487805309	0.0	535.4317785193352	1046.2439908806473	0.0	570.7715617142205	537.2178986428735	0.0	580.1716166511628	449.8519008886627	0.0	580.9220030531167	506.99509360737346	0.0	639.3907856196872	562.6089038594771	0.0	655.1059198585892	674.636343439064	0.0	656.6786340234718	769.3955959210435	0.0	502.2678417854341	556.4412097039506	0.0	476.727332580156	670.8484563654634	0.0	453.6586114569607	767.0297127563181	0.0
